<svg xmlns="http://www.w3.org/2000/svg" viewBox="0 0 1000 430" font-family="Segoe UI, Arial, sans-serif">
<rect width="1000" height="430" fill="#f7fbfe"/>
<polygon points="0,250 150,250 190,205 0,205" fill="#3c4964"/>
<polygon points="0,250 190,250 190,430 0,430" fill="#2b3750"/>
<polygon points="1000,250 830,250 790,205 1000,205" fill="#3c4964"/>
<polygon points="810,250 1000,250 1000,430 810,430" fill="#2b3750"/>
<rect x="150" y="196" width="700" height="14" fill="#000538"/>
<g stroke="#000538" stroke-width="8"><line x1="235" y1="210" x2="235" y2="300"/><line x1="380" y1="210" x2="380" y2="330"/><line x1="500" y1="210" x2="500" y2="340"/><line x1="620" y1="210" x2="620" y2="330"/><line x1="765" y1="210" x2="765" y2="300"/></g>
<path d="M235 300 Q 500 420 765 300" stroke="#000538" stroke-width="6" fill="none"/>
<g text-anchor="middle">
<g><rect x="180" y="140" width="118" height="40" rx="8" fill="#01167e"/><text x="239" y="158" fill="#ffffff" font-size="13" font-weight="600">Business</text><text x="239" y="173" fill="#ffffff" font-size="13" font-weight="600">value</text></g>
<g><rect x="316" y="140" width="118" height="40" rx="8" fill="#01167e"/><text x="375" y="158" fill="#ffffff" font-size="13" font-weight="600">Workflow</text><text x="375" y="173" fill="#ffffff" font-size="13" font-weight="600">fit</text></g>
<g><rect x="452" y="140" width="118" height="40" rx="8" fill="#01167e"/><text x="511" y="158" fill="#ffffff" font-size="13" font-weight="600">Secure</text><text x="511" y="173" fill="#ffffff" font-size="13" font-weight="600">data</text></g>
<g><rect x="588" y="140" width="118" height="40" rx="8" fill="#01167e"/><text x="647" y="158" fill="#ffffff" font-size="13" font-weight="600">Evaluation</text><text x="647" y="173" fill="#ffffff" font-size="13" font-weight="600">&amp; trust</text></g>
<g><rect x="724" y="140" width="118" height="40" rx="8" fill="#01167e"/><text x="783" y="158" fill="#ffffff" font-size="13" font-weight="600">Run</text><text x="783" y="173" fill="#ffffff" font-size="13" font-weight="600">model</text></g>
</g>
<g text-anchor="middle">
<rect x="18" y="70" width="150" height="58" rx="10" fill="#ffffff" stroke="#d9e8f2"/>
<text x="93" y="94" fill="#000538" font-size="15" font-weight="700">AI pilot</text>
<text x="93" y="113" fill="#5a6a7e" font-size="12">demo stage</text>
<rect x="818" y="58" width="172" height="70" rx="10" fill="#000538"/>
<text x="904" y="84" fill="#ffffff" font-size="15" font-weight="700">Production</text>
<text x="904" y="103" fill="#9fc4d8" font-size="11">governed business system</text>
</g>
<path d="M175 99 h620" stroke="#01167e" stroke-width="2.5" stroke-dasharray="7 6" marker-end="url(#ar)"/>
<defs><marker id="ar" markerWidth="9" markerHeight="9" refX="7" refY="4.5" orient="auto"><path d="M0 0 L9 4.5 L0 9 z" fill="#01167e"/></marker></defs>
<text x="500" y="392" text-anchor="middle" fill="#8aa0b8" font-size="14" font-weight="700" letter-spacing="3">THE PRODUCTIONIZATION GAP</text>
<text x="500" y="34" text-anchor="middle" fill="#000538" font-size="18" font-weight="700">Five disciplines carry AI across — evidence at every stage</text>
</svg>
