<svg xmlns="http://www.w3.org/2000/svg" viewBox="0 0 960 560" font-family="Segoe UI, Arial, sans-serif">
<rect width="960" height="560" rx="18" fill="#ffffff" stroke="#d9e8f2"/>
<text x="48" y="56" fill="#000538" font-size="22" font-weight="700">Production readiness scorecard</text>
<text x="48" y="82" fill="#5a6a7e" font-size="14">Illustrative assessment output — each gap scored 0–5 with evidence</text>
<g font-size="14">
<g><text x="48" y="132" fill="#000538" font-weight="600">1 · Strategy-to-use-case</text><rect x="300" y="116" width="420" height="20" rx="10" fill="#eef4f9"/><rect x="300" y="116" width="336" height="20" rx="10" fill="#3b8f3f"/><text x="740" y="132" fill="#000538" font-weight="700">4.0</text><rect x="790" y="114" width="122" height="24" rx="12" fill="#d8efd8"/><text x="851" y="131" text-anchor="middle" fill="#1d5a20" font-size="12" font-weight="700">STRENGTH</text></g>
<g><text x="48" y="182" fill="#000538" font-weight="600">2 · Pilot-to-workflow</text><rect x="300" y="166" width="420" height="20" rx="10" fill="#eef4f9"/><rect x="300" y="166" width="252" height="20" rx="10" fill="#ef9f27"/><text x="740" y="182" fill="#000538" font-weight="700">3.0</text><rect x="790" y="164" width="122" height="24" rx="12" fill="#fce9c8"/><text x="851" y="181" text-anchor="middle" fill="#7a4c06" font-size="12" font-weight="700">REMEDIATE</text></g>
<g><text x="48" y="232" fill="#000538" font-weight="600">3 · Content &amp; data</text><rect x="300" y="216" width="420" height="20" rx="10" fill="#eef4f9"/><rect x="300" y="216" width="168" height="20" rx="10" fill="#ef9f27"/><text x="740" y="232" fill="#000538" font-weight="700">2.0</text><rect x="790" y="214" width="122" height="24" rx="12" fill="#fce9c8"/><text x="851" y="231" text-anchor="middle" fill="#7a4c06" font-size="12" font-weight="700">REMEDIATE</text></g>
<g><text x="48" y="282" fill="#000538" font-weight="600">4 · Architecture</text><rect x="300" y="266" width="420" height="20" rx="10" fill="#eef4f9"/><rect x="300" y="266" width="252" height="20" rx="10" fill="#ef9f27"/><text x="740" y="282" fill="#000538" font-weight="700">3.0</text><rect x="790" y="264" width="122" height="24" rx="12" fill="#fce9c8"/><text x="851" y="281" text-anchor="middle" fill="#7a4c06" font-size="12" font-weight="700">REMEDIATE</text></g>
<g><text x="48" y="332" fill="#000538" font-weight="600">5 · Integration</text><rect x="300" y="316" width="420" height="20" rx="10" fill="#eef4f9"/><rect x="300" y="316" width="84" height="20" rx="10" fill="#e24b4a"/><text x="740" y="332" fill="#000538" font-weight="700">1.0</text><rect x="790" y="314" width="122" height="24" rx="12" fill="#f8d3d3"/><text x="851" y="331" text-anchor="middle" fill="#8c1f1f" font-size="12" font-weight="700">BLOCKER</text></g>
<g><text x="48" y="382" fill="#000538" font-weight="600">6 · Trust &amp; evaluation</text><rect x="300" y="366" width="420" height="20" rx="10" fill="#eef4f9"/><rect x="300" y="366" width="84" height="20" rx="10" fill="#e24b4a"/><text x="740" y="382" fill="#000538" font-weight="700">1.0</text><rect x="790" y="364" width="122" height="24" rx="12" fill="#f8d3d3"/><text x="851" y="381" text-anchor="middle" fill="#8c1f1f" font-size="12" font-weight="700">BLOCKER</text></g>
<g><text x="48" y="432" fill="#000538" font-weight="600">7 · Governance</text><rect x="300" y="416" width="420" height="20" rx="10" fill="#eef4f9"/><rect x="300" y="416" width="168" height="20" rx="10" fill="#ef9f27"/><text x="740" y="432" fill="#000538" font-weight="700">2.0</text><rect x="790" y="414" width="122" height="24" rx="12" fill="#fce9c8"/><text x="851" y="431" text-anchor="middle" fill="#7a4c06" font-size="12" font-weight="700">REMEDIATE</text></g>
<g><text x="48" y="482" fill="#000538" font-weight="600">8 · Run model</text><rect x="300" y="466" width="420" height="20" rx="10" fill="#eef4f9"/><rect x="300" y="466" width="84" height="20" rx="10" fill="#e24b4a"/><text x="740" y="482" fill="#000538" font-weight="700">1.0</text><rect x="790" y="464" width="122" height="24" rx="12" fill="#f8d3d3"/><text x="851" y="481" text-anchor="middle" fill="#8c1f1f" font-size="12" font-weight="700">BLOCKER</text></g>
</g>
<line x1="48" y1="508" x2="912" y2="508" stroke="#eef4f9" stroke-width="1.5"/>
<text x="48" y="536" fill="#000538" font-size="14" font-weight="700">Overall 2.1 — not yet production-ready; remediation path defined</text>
<text x="912" y="536" text-anchor="end" fill="#5a6a7e" font-size="12">0–1 blocker · 2–3 remediate · 4–5 strength</text>
</svg>
